<svg width="24" height="24" viewBox="0 0 24 24" fill="none" xmlns="http://www.w3.org/2000/svg">
<g clip-path="url(#clip0_5_580)">
<path d="M20.07 12.34C19.8042 12.1859 19.4885 12.1425 19.191 12.2192C18.8935 12.2959 18.6381 12.4866 18.48 12.75L13.78 20.69C13.7039 20.8202 13.6546 20.9643 13.635 21.1138C13.6155 21.2633 13.626 21.4153 13.6661 21.5607C13.7062 21.706 13.7749 21.8419 13.8684 21.9603C13.9618 22.0787 14.0779 22.1772 14.21 22.25C14.4779 22.402 14.7943 22.4442 15.0927 22.3678C15.3911 22.2913 15.6482 22.1021 15.81 21.84L20.5 13.9C20.5761 13.7698 20.6254 13.6257 20.645 13.4762C20.6645 13.3267 20.654 13.1747 20.6139 13.0293C20.5738 12.884 20.505 12.7481 20.4116 12.6297C20.3182 12.5113 20.2021 12.4128 20.07 12.34Z" fill="#333333"/>
<path d="M22.54 13.42C22.4018 13.3411 22.2492 13.2907 22.0911 13.2718C21.9331 13.2529 21.7729 13.2659 21.62 13.31C21.6222 13.6819 21.5255 14.0477 21.34 14.37L16.64 22.31C16.4514 22.637 16.174 22.904 15.84 23.08C15.8786 23.2334 15.9482 23.3774 16.0445 23.5029C16.1408 23.6284 16.2618 23.7329 16.4 23.81C16.6928 23.9752 17.0385 24.0195 17.3635 23.9336C17.6885 23.8477 17.9671 23.6383 18.14 23.35L23 15.12C23.0835 14.9787 23.1378 14.8221 23.1599 14.6595C23.1819 14.4969 23.1712 14.3315 23.1283 14.173C23.0855 14.0146 23.0113 13.8664 22.9103 13.737C22.8092 13.6077 22.6833 13.4999 22.54 13.42Z" fill="#333333"/>
<path d="M18.16 5.7C18.1787 5.70263 18.1977 5.69994 18.2149 5.69223C18.2321 5.68453 18.2467 5.67213 18.2572 5.65645C18.2676 5.64077 18.2734 5.62246 18.2739 5.60363C18.2744 5.5848 18.2696 5.56621 18.26 5.55C17.537 4.55038 16.5871 3.73653 15.4885 3.17528C14.3898 2.61403 13.1737 2.32139 11.94 2.32139C10.7063 2.32139 9.49018 2.61403 8.39154 3.17528C7.29289 3.73653 6.34304 4.55038 5.62 5.55C5.61123 5.5584 5.60424 5.56849 5.59947 5.57966C5.59471 5.59083 5.59225 5.60285 5.59225 5.615C5.59225 5.62715 5.59471 5.63917 5.59947 5.65034C5.60424 5.66151 5.61123 5.6716 5.62 5.68C5.64285 5.69784 5.67101 5.70753 5.7 5.70753C5.72899 5.70753 5.75715 5.69784 5.78 5.68C7.45268 4.12693 9.65761 3.27503 11.94 3.3C14.2109 3.27899 16.4039 4.12685 18.07 5.67C18.0963 5.68887 18.1277 5.69933 18.16 5.7Z" fill="#333333"/>
<path d="M20.68 7.41C21.207 8.65602 21.5246 9.9805 21.62 11.33C22.0665 11.332 22.4995 11.4834 22.85 11.76C22.8906 10.4877 22.7217 9.21745 22.35 8C22.0189 6.81314 21.4086 5.72276 20.57 4.82C19.8332 3.93153 19.0416 3.08989 18.2 2.3C16.4351 0.844552 14.2273 0.0333761 11.94 0V0C9.65162 0.0277662 7.44201 0.839606 5.68 2.3C4.83609 3.08013 4.04123 3.91172 3.3 4.79C2.4566 5.69932 1.84887 6.80146 1.53 8C1.14529 9.2151 0.966164 10.4859 0.999999 11.76C1.35456 11.4755 1.79544 11.3204 2.25 11.32C2.33798 9.97365 2.65239 8.65178 3.18 7.41C3.47 6.73 3.95 6.05 4.23 5.41C4.51951 4.79411 4.9432 4.25083 5.47 3.82C6.05055 3.23419 6.70231 2.72354 7.41 2.3C8.77082 1.46461 10.3333 1.01523 11.93 1C13.5301 1.01341 15.0963 1.46287 16.46 2.3C17.1691 2.72597 17.8238 3.23636 18.41 3.82C18.9217 4.24058 19.3377 4.76563 19.63 5.36C19.91 6.05 20.39 6.73 20.68 7.41Z" fill="#333333"/>
<path d="M3.93 12.34C4.19578 12.1859 4.51151 12.1425 4.809 12.2192C5.10649 12.2959 5.36188 12.4866 5.52 12.75L10.22 20.69C10.2961 20.8202 10.3454 20.9643 10.365 21.1138C10.3845 21.2633 10.374 21.4153 10.3339 21.5607C10.2938 21.706 10.225 21.8419 10.1316 21.9603C10.0382 22.0787 9.92207 22.1772 9.79 22.25C9.5221 22.402 9.20568 22.4442 8.90728 22.3678C8.60889 22.2913 8.35177 22.1021 8.19 21.84L3.5 13.9C3.42388 13.7698 3.37459 13.6257 3.35503 13.4762C3.33547 13.3267 3.34604 13.1747 3.38611 13.0293C3.42618 12.884 3.49495 12.7481 3.58836 12.6297C3.68177 12.5113 3.79793 12.4128 3.93 12.34Z" fill="#333333"/>
<path d="M1.46 13.42C1.5982 13.3411 1.75083 13.2907 1.90885 13.2718C2.06688 13.2529 2.22708 13.2659 2.38 13.31C2.37782 13.6819 2.47445 14.0477 2.66 14.37L7.36 22.31C7.54864 22.637 7.826 22.904 8.16 23.08C8.12138 23.2334 8.05177 23.3774 7.95547 23.5029C7.85916 23.6284 7.73819 23.7329 7.6 23.81C7.30721 23.9752 6.96152 24.0195 6.63653 23.9336C6.31153 23.8477 6.03292 23.6383 5.86 23.35L0.999998 15.12C0.916511 14.9787 0.862147 14.8221 0.840106 14.6595C0.818066 14.4969 0.828795 14.3315 0.871662 14.173C0.91453 14.0146 0.988668 13.8664 1.08971 13.737C1.19075 13.6077 1.31665 13.4999 1.46 13.42Z" fill="#333333"/>
</g>
<defs>
<clipPath id="clip0_5_580">
<rect width="24" height="24" fill="white"/>
</clipPath>
</defs>
</svg>
