<svg width="24" height="24" viewBox="0 0 24 24" fill="none" xmlns="http://www.w3.org/2000/svg">
<path d="M21.6383 10.3174H20.5126C20.5282 9.43405 20.3918 8.5364 20.093 7.70678C20.0537 7.59758 19.8272 7.02474 19.7724 6.97542C19.7428 6.94876 19.6678 6.95115 19.6192 6.93086C19.475 6.8704 19.3785 6.63927 19.2847 6.51197C16.1118 2.21032 8.09165 2.10072 4.84416 6.34132C4.73574 6.48294 4.51732 6.87437 4.38283 6.93086C4.33445 6.95115 4.2592 6.94896 4.22958 6.97542C4.17468 7.02474 3.94836 7.59738 3.90906 7.70678C3.61006 8.53541 3.47222 9.43484 3.4894 10.3174H2.36352C2.40756 10.1246 2.37221 9.90962 2.38248 9.70992C2.61354 5.16799 6.38911 1.60028 10.7692 1.07101C16.0628 0.431336 21.3306 4.17806 21.6194 9.70992C21.6298 9.90962 21.5941 10.1246 21.6383 10.3174Z" fill="white"/>
<path d="M19.9612 12.9843L20.5099 12.8804L20.5126 11.3417C20.5225 11.2089 20.6236 11.0893 20.7591 11.0728C20.9641 11.0479 21.5621 11.0479 21.7673 11.0728C22.0013 11.101 22.0114 11.3539 21.9948 11.5416C21.9843 11.6592 21.9446 11.7497 21.8271 11.7904C21.7683 11.8109 21.6312 11.7982 21.6211 11.8408L21.6292 13.3435C22.2805 14.2023 21.8996 15.4592 21.6648 16.4203C21.4329 17.3689 21.1329 18.3423 20.7846 19.2533C20.3783 20.3152 19.3923 22.6022 18.2326 22.9485C17.6252 23.1299 16.8808 22.8204 16.6512 22.2103C17.2428 21.2254 17.7182 20.1539 18.1523 19.0886C18.9491 17.1332 19.6389 15.0803 19.9612 12.9843Z" fill="white"/>
<path d="M3.49196 12.8804L4.04058 12.9843C4.36071 15.0805 5.0531 17.1337 5.84977 19.0884C6.28404 20.1537 6.75722 21.2266 7.35087 22.2101C7.0578 22.9244 6.19616 23.2001 5.52273 22.8389C4.41048 22.2422 3.51448 20.0801 3.09363 18.9205C2.77173 18.0332 2.48655 17.0864 2.27426 16.1655C2.06551 15.2613 1.75447 14.1452 2.37241 13.3433C2.36451 12.8762 2.35246 12.4052 2.36253 11.9378C2.36352 11.8911 2.4044 11.8288 2.35068 11.8123C2.30427 11.7982 2.24345 11.8175 2.18479 11.8004C1.98869 11.7429 1.98731 11.471 2.00962 11.3039C2.02404 11.1969 2.10758 11.0927 2.21619 11.0744C2.38386 11.0461 3.06421 11.0513 3.24254 11.0728C3.37722 11.0891 3.47893 11.2083 3.489 11.3417L3.49196 12.8804Z" fill="white"/>
<path d="M7.71998 21.6303C6.87315 19.9864 6.16891 18.2438 5.56242 16.4937C5.16824 15.356 4.80091 14.1989 4.57439 13.0131C4.58289 12.9634 4.74028 12.8786 4.79203 12.853C6.10413 12.2006 6.70094 13.3548 7.16583 14.3815C7.58174 15.2999 7.95716 16.3523 8.28835 17.3086C8.59919 18.206 9.10832 19.6966 9.03919 20.6314C8.99022 21.2936 8.37267 21.7849 7.71998 21.6303Z" fill="white"/>
<path d="M16.2819 21.6303C15.6276 21.7819 15.0118 21.2972 14.9624 20.6312C14.8933 19.6946 15.402 18.2074 15.7133 17.3084C16.0447 16.3507 16.4197 15.3013 16.8358 14.3813C17.3001 13.355 17.8977 12.2004 19.2096 12.8528C19.2614 12.8784 19.4186 12.9634 19.4272 13.0129C19.4393 13.0829 19.3548 13.4014 19.3338 13.496C19.1182 14.475 18.7858 15.4862 18.459 16.4338C17.8481 18.2048 17.1378 19.9675 16.2819 21.6303Z" fill="white"/>
</svg>
