<svg width="24" height="24" viewBox="0 0 24 24" fill="none" xmlns="http://www.w3.org/2000/svg">
<path d="M16.12 0H7.88C7.42913 0 6.99673 0.179107 6.67792 0.497918C6.35911 0.81673 6.18 1.24913 6.18 1.7V22.3C6.18 22.7509 6.35911 23.1833 6.67792 23.5021C6.99673 23.8209 7.42913 24 7.88 24H16.12C16.5709 24 17.0033 23.8209 17.3221 23.5021C17.6409 23.1833 17.82 22.7509 17.82 22.3V1.7C17.82 1.24913 17.6409 0.81673 17.3221 0.497918C17.0033 0.179107 16.5709 0 16.12 0V0ZM8.34 5.73C8.00848 5.73 7.69054 5.5983 7.45612 5.36388C7.2217 5.12946 7.09 4.81152 7.09 4.48V2.16C7.09 1.82848 7.2217 1.51054 7.45612 1.27612C7.69054 1.0417 8.00848 0.91 8.34 0.91H10.44C10.7715 0.91 11.0895 1.0417 11.3239 1.27612C11.5583 1.51054 11.69 1.82848 11.69 2.16V4.48C11.69 4.81152 11.5583 5.12946 11.3239 5.36388C11.0895 5.5983 10.7715 5.73 10.44 5.73H8.34Z" fill="#333333"/>
</svg>
