<svg width="24" height="24" viewBox="0 0 24 24" fill="none" xmlns="http://www.w3.org/2000/svg">
<path d="M8.28802 1.00729L15.636 1C16.8997 1.07333 17.9088 2.08615 18 3.34374L17.999 20.6761C17.904 21.9139 16.8966 22.9169 15.6566 22.9998H8.36405C7.10318 22.9267 6.08936 21.912 6 20.6563L6.00104 3.32395C6.0952 2.11073 7.06943 1.10686 8.28802 1.00729ZM8.32926 2.00657C7.62457 2.09156 7.05444 2.6763 7.00111 3.38644C6.93487 4.2674 7.0509 5.22668 7.00007 6.11597C7.06818 6.85965 7.65769 7.44751 8.40612 7.50126L15.6141 7.50022C16.3581 7.43502 16.9466 6.84341 17.0003 6.09514C16.83 4.67965 17.659 2.25676 15.5943 2.00011L8.32926 2.00657Z" fill="white"/>
<path d="M8.6413 3.00627C9.53722 2.88482 9.83801 4.16283 9.00625 4.45446C7.95598 4.82255 7.59145 3.14876 8.6413 3.00627Z" fill="white"/>
<path d="M10.641 4.00617C11.5369 3.88473 11.8377 5.16273 11.006 5.45437C9.9557 5.82246 9.59117 4.14866 10.641 4.00617Z" fill="white"/>
<path d="M8.6413 5.00608C9.53722 4.88463 9.83801 6.16264 9.00625 6.45428C7.95598 6.82237 7.59145 5.14857 8.6413 5.00608Z" fill="white"/>
</svg>
