<svg width="24" height="24" viewBox="0 0 24 24" fill="none" xmlns="http://www.w3.org/2000/svg">
<g clip-path="url(#clip0_5_795)">
<path d="M17.88 5.1C17.9065 3.92923 17.6014 2.77483 17 1.77C16.4202 1.0081 15.5864 0.479428 14.65 0.280005C13.7807 0.0831241 12.8913 -0.0108545 12 4.63339e-06C11.1087 -0.0108545 10.2193 0.0831241 9.35 0.280005C8.41359 0.479428 7.57977 1.0081 7 1.77C6.39855 2.77483 6.09348 3.92923 6.12 5.1C5.84 8.33 6 11.53 6 14.76C5.96473 16.6348 6.06499 18.5097 6.3 20.37C6.38097 21.2217 6.74848 22.0208 7.34246 22.6366C7.93644 23.2523 8.72174 23.6484 9.57 23.76C10.3692 23.9259 11.1838 24.0063 12 24C12.8329 24.0099 13.6644 23.9294 14.48 23.76C15.3283 23.6484 16.1136 23.2523 16.7075 22.6366C17.3015 22.0208 17.669 21.2217 17.75 20.37C17.985 18.5097 18.0853 16.6348 18.05 14.76C18.05 11.53 18.15 8.33 17.88 5.1ZM12 17.52C11.9897 17.4638 11.9897 17.4062 12 17.35C12.0272 17.2622 12.0713 17.1807 12.13 17.11C12.1739 17.0562 12.2284 17.012 12.29 16.98C12.3592 16.9431 12.4333 16.9161 12.51 16.9C12.5147 16.9197 12.5147 16.9403 12.51 16.96C12.5204 17.033 12.5204 17.107 12.51 17.18C12.4583 17.3165 12.3635 17.4323 12.24 17.51C12.1938 17.5197 12.1462 17.5197 12.1 17.51H12V17.52ZM13.14 19C13.0971 19.1359 13.033 19.2642 12.95 19.38C12.9055 19.4533 12.8517 19.5205 12.79 19.58C12.7483 19.6243 12.697 19.6585 12.64 19.68C12.5851 19.6999 12.5249 19.6999 12.47 19.68C12.402 19.6646 12.3352 19.6446 12.27 19.62H12.1C12.0375 19.6051 11.9725 19.6051 11.91 19.62L11.77 19.67C11.7235 19.6747 11.6766 19.6747 11.63 19.67C11.5681 19.6892 11.5019 19.6892 11.44 19.67L11.31 19.58C11.2391 19.5088 11.1785 19.428 11.13 19.34C11.0474 19.2046 10.9803 19.0604 10.93 18.91C10.902 18.8247 10.8786 18.7379 10.86 18.65C10.8552 18.5667 10.8552 18.4833 10.86 18.4C10.8639 18.277 10.8876 18.1555 10.93 18.04C10.9707 17.9356 11.0319 17.8404 11.11 17.76C11.191 17.6821 11.291 17.627 11.4 17.6H11.56C11.6519 17.6104 11.7424 17.6305 11.83 17.66H11.99C12.0294 17.6697 12.0706 17.6697 12.11 17.66C12.1791 17.6493 12.2464 17.6291 12.31 17.6C12.3665 17.5944 12.4235 17.5944 12.48 17.6H12.64C12.7376 17.6073 12.8312 17.6419 12.91 17.7C12.9648 17.7375 13.0151 17.7811 13.06 17.83L13 17.88C12.939 17.9364 12.8852 18.0003 12.84 18.07C12.7834 18.1765 12.7581 18.2969 12.7669 18.4172C12.7758 18.5375 12.8184 18.6529 12.89 18.75C12.9296 18.8094 12.9806 18.8604 13.04 18.9H13.14V19Z" fill="#333333"/>
</g>
<defs>
<clipPath id="clip0_5_795">
<rect width="24" height="24" fill="white"/>
</clipPath>
</defs>
</svg>
