<svg width="24" height="24" viewBox="0 0 24 24" fill="none" xmlns="http://www.w3.org/2000/svg">
<path d="M0 6.00001V18C0.00261854 18.1335 0.0575043 18.2607 0.152866 18.3542C0.248227 18.4477 0.376454 18.5 0.51 18.5H23.51C23.6401 18.4949 23.7632 18.4403 23.8543 18.3474C23.9454 18.2544 23.9975 18.1301 24 18V6.00001C24 5.86475 23.9463 5.73502 23.8506 5.63938C23.755 5.54374 23.6253 5.49001 23.49 5.49001H0.51C0.37474 5.49001 0.245019 5.54374 0.149376 5.63938C0.053732 5.73502 0 5.86475 0 6.00001H0ZM18.16 10C18.16 9.92575 18.1895 9.85453 18.242 9.80202C18.2945 9.74951 18.3657 9.72001 18.44 9.72001H19.62C19.6935 9.7225 19.7632 9.7528 19.8152 9.80478C19.8672 9.85676 19.8975 9.92654 19.9 10V11.18C19.9 11.2543 19.8705 11.3255 19.818 11.378C19.7655 11.4305 19.6943 11.46 19.62 11.46H18.44C18.4029 11.4614 18.3658 11.4551 18.3312 11.4416C18.2966 11.428 18.2652 11.4074 18.2389 11.3811C18.2126 11.3548 18.192 11.3234 18.1785 11.2888C18.1649 11.2542 18.1586 11.2172 18.16 11.18V10ZM18.45 12.79V14C18.45 14.0368 18.4428 14.0732 18.4287 14.1072C18.4146 14.1411 18.394 14.172 18.368 14.198C18.342 14.224 18.3111 14.2446 18.2772 14.2587C18.2432 14.2728 18.2068 14.28 18.17 14.28H17C16.9629 14.2814 16.9258 14.2751 16.8912 14.2616C16.8566 14.248 16.8252 14.2274 16.7989 14.2011C16.7726 14.1748 16.752 14.1434 16.7385 14.1088C16.7249 14.0742 16.7186 14.0372 16.72 14V12.77C16.72 12.6957 16.7495 12.6245 16.802 12.572C16.8545 12.5195 16.9257 12.49 17 12.49H18.18C18.2517 12.4949 18.319 12.5263 18.3689 12.578C18.4188 12.6298 18.4477 12.6982 18.45 12.77V12.79ZM15.35 10C15.3525 9.92654 15.3828 9.85676 15.4348 9.80478C15.4868 9.7528 15.5565 9.7225 15.63 9.72001H16.81C16.8852 9.71996 16.9575 9.74914 17.0116 9.80138C17.0657 9.85362 17.0974 9.92484 17.1 10V11.18C17.1 11.2176 17.0925 11.2549 17.0778 11.2895C17.0631 11.3242 17.0416 11.3555 17.0145 11.3816C16.9874 11.4078 16.9554 11.4282 16.9202 11.4416C16.8851 11.4551 16.8476 11.4613 16.81 11.46H15.63C15.5557 11.46 15.4845 11.4305 15.432 11.378C15.3795 11.3255 15.35 11.2543 15.35 11.18V10ZM15.65 12.79V14C15.65 14.0743 15.6205 14.1455 15.568 14.198C15.5155 14.2505 15.4443 14.28 15.37 14.28H14.19C14.1524 14.2813 14.1149 14.2751 14.0798 14.2616C14.0446 14.2482 14.0126 14.2278 13.9855 14.2016C13.9584 14.1755 13.9369 14.1442 13.9222 14.1095C13.9075 14.0749 13.9 14.0376 13.9 14V12.77C13.9026 12.6948 13.9343 12.6236 13.9884 12.5714C14.0425 12.5191 14.1148 12.49 14.19 12.49H15.37C15.4435 12.4925 15.5132 12.5228 15.5652 12.5748C15.6172 12.6268 15.6475 12.6965 15.65 12.77V12.79ZM12.55 10C12.5525 9.92654 12.5828 9.85676 12.6348 9.80478C12.6868 9.7528 12.7565 9.7225 12.83 9.72001H14C14.0743 9.72001 14.1455 9.74951 14.198 9.80202C14.2505 9.85453 14.28 9.92575 14.28 10V11.18C14.2814 11.2172 14.2751 11.2542 14.2615 11.2888C14.248 11.3234 14.2274 11.3548 14.2011 11.3811C14.1748 11.4074 14.1434 11.428 14.1088 11.4416C14.0742 11.4551 14.0371 11.4614 14 11.46H12.83C12.7557 11.46 12.6845 11.4305 12.632 11.378C12.5795 11.3255 12.55 11.2543 12.55 11.18V10ZM12.84 12.79V14C12.8414 14.0372 12.8351 14.0742 12.8215 14.1088C12.808 14.1434 12.7874 14.1748 12.7611 14.2011C12.7348 14.2274 12.7034 14.248 12.6688 14.2616C12.6342 14.2751 12.5971 14.2814 12.56 14.28H11.38C11.3432 14.28 11.3068 14.2728 11.2728 14.2587C11.2389 14.2446 11.208 14.224 11.182 14.198C11.156 14.172 11.1354 14.1411 11.1213 14.1072C11.1072 14.0732 11.1 14.0368 11.1 14V12.77C11.1025 12.6965 11.1328 12.6268 11.1848 12.5748C11.2368 12.5228 11.3065 12.4925 11.38 12.49H12.56C12.6343 12.49 12.7055 12.5195 12.758 12.572C12.8105 12.6245 12.84 12.6957 12.84 12.77V12.79ZM9.75 10C9.74683 9.92785 9.7707 9.85711 9.81694 9.80162C9.86317 9.74613 9.92845 9.7099 10 9.70001H11.18C11.2543 9.70001 11.3255 9.72951 11.378 9.78202C11.4305 9.83453 11.46 9.90574 11.46 9.98001V11.16C11.4614 11.1972 11.4551 11.2342 11.4415 11.2688C11.428 11.3034 11.4074 11.3348 11.3811 11.3611C11.3548 11.3874 11.3234 11.408 11.2888 11.4216C11.2542 11.4351 11.2171 11.4414 11.18 11.44H10C9.92574 11.44 9.85452 11.4105 9.80201 11.358C9.7495 11.3055 9.72 11.2343 9.72 11.16L9.75 10ZM10 12.77V14C10.0014 14.0372 9.99512 14.0742 9.98155 14.1088C9.96797 14.1434 9.9474 14.1748 9.92111 14.2011C9.89483 14.2274 9.8634 14.248 9.82879 14.2616C9.79418 14.2751 9.75715 14.2814 9.72 14.28H8.58C8.50574 14.28 8.43452 14.2505 8.38201 14.198C8.3295 14.1455 8.3 14.0743 8.3 14V12.77C8.30249 12.6965 8.33279 12.6268 8.38477 12.5748C8.43675 12.5228 8.50653 12.4925 8.58 12.49H9.76C9.82713 12.4997 9.88847 12.5334 9.93261 12.5849C9.97675 12.6364 10.0007 12.7022 10 12.77ZM7 10C7 9.92575 7.0295 9.85453 7.08201 9.80202C7.13452 9.74951 7.20574 9.72001 7.28 9.72001H8.41C8.48347 9.7225 8.55325 9.7528 8.60523 9.80478C8.65721 9.85676 8.68751 9.92654 8.69 10V11.18C8.69 11.2543 8.6605 11.3255 8.60799 11.378C8.55548 11.4305 8.48426 11.46 8.41 11.46H7.23C7.16003 11.4501 7.09674 11.4131 7.05374 11.357C7.01074 11.3009 6.99144 11.2302 7 11.16V10ZM7.29 12.79V14C7.29 14.0743 7.2605 14.1455 7.20799 14.198C7.15548 14.2505 7.08426 14.28 7.01 14.28H5.78C5.70574 14.28 5.63452 14.2505 5.58201 14.198C5.5295 14.1455 5.5 14.0743 5.5 14V12.77C5.50249 12.6965 5.53279 12.6268 5.58477 12.5748C5.63675 12.5228 5.70653 12.4925 5.78 12.49H7C7.06627 12.5016 7.12646 12.5359 7.17024 12.5869C7.21402 12.638 7.23869 12.7027 7.24 12.77L7.29 12.79ZM4.15 10C4.15 9.92575 4.1795 9.85453 4.23201 9.80202C4.28452 9.74951 4.35574 9.72001 4.43 9.72001H5.61C5.68347 9.7225 5.75325 9.7528 5.80523 9.80478C5.85721 9.85676 5.88751 9.92654 5.89 10V11.18C5.89 11.2543 5.8605 11.3255 5.80799 11.378C5.75548 11.4305 5.68426 11.46 5.61 11.46H4.43C4.39285 11.4614 4.35582 11.4551 4.32121 11.4416C4.2866 11.428 4.25517 11.4074 4.22889 11.3811C4.2026 11.3548 4.18203 11.3234 4.16845 11.2888C4.15488 11.2542 4.1486 11.2172 4.15 11.18V10ZM1.34 10C1.34259 9.92484 1.37429 9.85362 1.4284 9.80138C1.4825 9.74914 1.55479 9.71996 1.63 9.72001H2.81C2.88347 9.7225 2.95325 9.7528 3.00523 9.80478C3.05721 9.85676 3.08751 9.92654 3.09 10V11.18C3.09 11.2168 3.08276 11.2532 3.06869 11.2872C3.05462 11.3211 3.03399 11.352 3.00799 11.378C2.98199 11.404 2.95112 11.4246 2.91715 11.4387C2.88318 11.4528 2.84677 11.46 2.81 11.46H1.63C1.5924 11.4613 1.55491 11.4551 1.51978 11.4416C1.48464 11.4282 1.45258 11.4078 1.42551 11.3816C1.39844 11.3555 1.37692 11.3242 1.36223 11.2895C1.34754 11.2549 1.33998 11.2176 1.34 11.18V10ZM3 16.74C3 16.8143 2.9705 16.8855 2.91799 16.938C2.86548 16.9905 2.79426 17.02 2.72 17.02H1.53C1.49285 17.0214 1.45582 17.0151 1.42121 17.0016C1.3866 16.988 1.35517 16.9674 1.32889 16.9411C1.3026 16.9148 1.28203 16.8834 1.26845 16.8488C1.25488 16.8142 1.2486 16.7772 1.25 16.74V15.56C1.25 15.5232 1.25724 15.4868 1.27131 15.4529C1.28539 15.4189 1.30601 15.388 1.33201 15.362C1.35801 15.336 1.38888 15.3154 1.42285 15.3013C1.45682 15.2872 1.49323 15.28 1.53 15.28H2.71C2.78347 15.2825 2.85325 15.3128 2.90523 15.3648C2.95721 15.4168 2.98751 15.4865 2.99 15.56L3 16.74ZM1.53 14.22C1.49285 14.2214 1.45582 14.2151 1.42121 14.2016C1.3866 14.188 1.35517 14.1674 1.32889 14.1411C1.3026 14.1148 1.28203 14.0834 1.26845 14.0488C1.25488 14.0142 1.2486 13.9772 1.25 13.94V12.76C1.25 12.7232 1.25724 12.6868 1.27131 12.6529C1.28539 12.6189 1.30601 12.588 1.33201 12.562C1.35801 12.536 1.38888 12.5154 1.42285 12.5013C1.45682 12.4872 1.49323 12.48 1.53 12.48H4.15C4.18677 12.48 4.22318 12.4872 4.25715 12.5013C4.29112 12.5154 4.32199 12.536 4.34799 12.562C4.37399 12.588 4.39461 12.6189 4.40869 12.6529C4.42276 12.6868 4.43 12.7232 4.43 12.76V13.94C4.4314 13.9772 4.42512 14.0142 4.41155 14.0488C4.39797 14.0834 4.3774 14.1148 4.35111 14.1411C4.32483 14.1674 4.2934 14.188 4.25879 14.2016C4.22418 14.2151 4.18715 14.2214 4.15 14.22H1.53ZM19.8 16.74C19.8 16.8143 19.7705 16.8855 19.718 16.938C19.6655 16.9905 19.5943 17.02 19.52 17.02H4.52C4.44574 17.02 4.37452 16.9905 4.32201 16.938C4.2695 16.8855 4.24 16.8143 4.24 16.74V15.56C4.24249 15.4865 4.27279 15.4168 4.32477 15.3648C4.37675 15.3128 4.44653 15.2825 4.52 15.28H19.52C19.5935 15.2825 19.6632 15.3128 19.7152 15.3648C19.7672 15.4168 19.7975 15.4865 19.8 15.56V16.74ZM22.7 16.74C22.7 16.8143 22.6705 16.8855 22.618 16.938C22.5655 16.9905 22.4943 17.02 22.42 17.02H21.24C21.2029 17.0214 21.1658 17.0151 21.1312 17.0016C21.0966 16.988 21.0652 16.9674 21.0389 16.9411C21.0126 16.9148 20.992 16.8834 20.9785 16.8488C20.9649 16.8142 20.9586 16.7772 20.96 16.74V15.56C20.96 15.4857 20.9895 15.4145 21.042 15.362C21.0945 15.3095 21.1657 15.28 21.24 15.28H22.42C22.4935 15.2825 22.5632 15.3128 22.6152 15.3648C22.6672 15.4168 22.6975 15.4865 22.7 15.56V16.74ZM22.7 13.94C22.7 14.0143 22.6705 14.0855 22.618 14.138C22.5655 14.1905 22.4943 14.22 22.42 14.22H19.8C19.7629 14.2214 19.7258 14.2151 19.6912 14.2016C19.6566 14.188 19.6252 14.1674 19.5989 14.1411C19.5726 14.1148 19.552 14.0834 19.5385 14.0488C19.5249 14.0142 19.5186 13.9772 19.52 13.94V12.76C19.52 12.6857 19.5495 12.6145 19.602 12.562C19.6545 12.5095 19.7257 12.48 19.8 12.48H22.42C22.4935 12.4825 22.5632 12.5128 22.6152 12.5648C22.6672 12.6168 22.6975 12.6865 22.7 12.76V13.94ZM22.7 11.16C22.7 11.2343 22.6705 11.3055 22.618 11.358C22.5655 11.4105 22.4943 11.44 22.42 11.44H21.24C21.2029 11.4414 21.1658 11.4351 21.1312 11.4216C21.0966 11.408 21.0652 11.3874 21.0389 11.3611C21.0126 11.3348 20.992 11.3034 20.9785 11.2688C20.9649 11.2342 20.9586 11.1972 20.96 11.16V10C20.96 9.92575 20.9895 9.85453 21.042 9.80202C21.0945 9.74951 21.1657 9.72001 21.24 9.72001H22.42C22.4935 9.7225 22.5632 9.7528 22.6152 9.80478C22.6672 9.85676 22.6975 9.92654 22.7 10V11.16ZM18.16 7.16001C18.16 7.08574 18.1895 7.01453 18.242 6.96202C18.2945 6.90951 18.3657 6.88001 18.44 6.88001H19.62C19.6935 6.8825 19.7632 6.9128 19.8152 6.96478C19.8672 7.01676 19.8975 7.08654 19.9 7.16001V8.37001C19.8975 8.44347 19.8672 8.51325 19.8152 8.56523C19.7632 8.61721 19.6935 8.64751 19.62 8.65001H18.44C18.3657 8.65001 18.2945 8.62051 18.242 8.568C18.1895 8.51549 18.16 8.44427 18.16 8.37001V7.16001ZM15.35 7.16001C15.3525 7.08654 15.3828 7.01676 15.4348 6.96478C15.4868 6.9128 15.5565 6.8825 15.63 6.88001H16.81C16.8852 6.87996 16.9575 6.90914 17.0116 6.96138C17.0657 7.01362 17.0974 7.08484 17.1 7.16001V8.37001C17.0974 8.44517 17.0657 8.51639 17.0116 8.56863C16.9575 8.62087 16.8852 8.65005 16.81 8.65001H15.63C15.5565 8.64751 15.4868 8.61721 15.4348 8.56523C15.3828 8.51325 15.3525 8.44347 15.35 8.37001V7.16001ZM12.55 7.16001C12.5525 7.08654 12.5828 7.01676 12.6348 6.96478C12.6868 6.9128 12.7565 6.8825 12.83 6.88001H14C14.0743 6.88001 14.1455 6.90951 14.198 6.96202C14.2505 7.01453 14.28 7.08574 14.28 7.16001V8.37001C14.28 8.44427 14.2505 8.51549 14.198 8.568C14.1455 8.62051 14.0743 8.65001 14 8.65001H12.83C12.7565 8.64751 12.6868 8.61721 12.6348 8.56523C12.5828 8.51325 12.5525 8.44347 12.55 8.37001V7.16001ZM9.75 7.16001C9.75828 7.0966 9.78728 7.03772 9.8325 6.9925C9.87771 6.94729 9.9366 6.91829 10 6.91001H11.18C11.2543 6.91001 11.3255 6.93951 11.378 6.99202C11.4305 7.04453 11.46 7.11575 11.46 7.19001V8.37001C11.46 8.44427 11.4305 8.51549 11.378 8.568C11.3255 8.62051 11.2543 8.65001 11.18 8.65001H10C9.92653 8.64751 9.85675 8.61721 9.80477 8.56523C9.75279 8.51325 9.72249 8.44347 9.72 8.37001L9.75 7.16001ZM7 7.19001C7 7.11575 7.0295 7.04453 7.08201 6.99202C7.13452 6.93951 7.20574 6.91001 7.28 6.91001H8.41C8.48347 6.9125 8.55325 6.9428 8.60523 6.99478C8.65721 7.04676 8.68751 7.11654 8.69 7.19001V8.37001C8.68751 8.44347 8.65721 8.51325 8.60523 8.56523C8.55325 8.61721 8.48347 8.64751 8.41 8.65001H7.23C7.1647 8.63816 7.10573 8.60351 7.0636 8.55223C7.02147 8.50094 6.99893 8.43636 7 8.37001V7.19001ZM4.2 7.19001C4.2 7.11575 4.2295 7.04453 4.28201 6.99202C4.33452 6.93951 4.40574 6.91001 4.48 6.91001H5.61C5.68347 6.9125 5.75325 6.9428 5.80523 6.99478C5.85721 7.04676 5.88751 7.11654 5.89 7.19001V8.37001C5.88751 8.44347 5.85721 8.51325 5.80523 8.56523C5.75325 8.61721 5.68347 8.64751 5.61 8.65001H4.43C4.35574 8.65001 4.28452 8.62051 4.23201 8.568C4.1795 8.51549 4.15 8.44427 4.15 8.37001L4.2 7.19001ZM1.39 7.19001C1.39259 7.11484 1.42429 7.04362 1.4784 6.99138C1.5325 6.93914 1.60479 6.90996 1.68 6.91001H2.81C2.88347 6.9125 2.95325 6.9428 3.00523 6.99478C3.05721 7.04676 3.08751 7.11654 3.09 7.19001V8.37001C3.08751 8.44347 3.05721 8.51325 3.00523 8.56523C2.95325 8.61721 2.88347 8.64751 2.81 8.65001H1.63C1.55479 8.65005 1.4825 8.62087 1.4284 8.56863C1.37429 8.51639 1.34259 8.44517 1.34 8.37001L1.39 7.19001ZM22.7 8.37001C22.6975 8.44347 22.6672 8.51325 22.6152 8.56523C22.5632 8.61721 22.4935 8.64751 22.42 8.65001H21.24C21.1729 8.64032 21.1115 8.60659 21.0674 8.5551C21.0233 8.5036 20.9993 8.43783 21 8.37001V7.19001C21 7.11575 21.0295 7.04453 21.082 6.99202C21.1345 6.93951 21.2057 6.91001 21.28 6.91001H22.46C22.5335 6.9125 22.6032 6.9428 22.6552 6.99478C22.7072 7.04676 22.7375 7.11654 22.74 7.19001L22.7 8.37001Z" fill="#333333"/>
</svg>
