<svg width="24" height="24" viewBox="0 0 24 24" fill="none" xmlns="http://www.w3.org/2000/svg">
<path d="M15.6202 22.3252C15.7999 22.535 16.1155 22.5594 16.3252 22.3798C16.535 22.2001 16.5594 21.8845 16.3798 21.6748L16 22L15.6202 22.3252ZM7.62024 21.6748C7.44061 21.8845 7.46502 22.2001 7.67475 22.3798C7.88449 22.5594 8.20013 22.535 8.37976 22.3252L8 22L7.62024 21.6748ZM8.34002 13.5128L8.20554 13.0312L8.20554 13.0312L8.34002 13.5128ZM7.00999 15.5596L6.51354 15.6191L6.51354 15.6191L7.00999 15.5596ZM16.99 15.5596L16.4936 15.5001L16.4935 15.5001L16.99 15.5596ZM15.66 13.5128L15.7945 13.0312L15.7945 13.0312L15.66 13.5128ZM21 10.5C21.2761 10.5 21.5 10.2761 21.5 10C21.5 9.72386 21.2761 9.5 21 9.5V10V10.5ZM17 14.5C16.7239 14.5 16.5 14.7239 16.5 15C16.5 15.2761 16.7239 15.5 17 15.5V15V14.5ZM3 9.5C2.72386 9.5 2.5 9.72386 2.5 10C2.5 10.2761 2.72386 10.5 3 10.5V10V9.5ZM7 15.5C7.27614 15.5 7.5 15.2761 7.5 15C7.5 14.7239 7.27614 14.5 7 14.5V15V15.5ZM12.5 16C12.5 15.7239 12.2761 15.5 12 15.5C11.7239 15.5 11.5 15.7239 11.5 16H12H12.5ZM11.5 22C11.5 22.2761 11.7239 22.5 12 22.5C12.2761 22.5 12.5 22.2761 12.5 22H12H11.5ZM7.55261 6.97014L8.03949 6.85635L8.03949 6.85635L7.55261 6.97014ZM7.31199 2.76918L6.90813 2.4744L6.90813 2.4744L7.31199 2.76918ZM16.688 2.76918L16.2841 3.06395L16.2841 3.06395L16.688 2.76918ZM16.4474 6.97014L16.9343 7.08394L16.9343 7.08393L16.4474 6.97014ZM15.4301 9.57641L15.1096 9.19264L15.1096 9.19267L15.4301 9.57641ZM12.5 10C12.5 9.72386 12.2761 9.5 12 9.5C11.7239 9.5 11.5 9.72386 11.5 10H12H12.5ZM16 22L16.3798 21.6748C15.2389 20.3427 13.7081 19.5 12 19.5V20V20.5C13.3593 20.5 14.6291 21.1679 15.6202 22.3252L16 22ZM12 20V19.5C10.2919 19.5 8.76108 20.3427 7.62024 21.6748L8 22L8.37976 22.3252C9.37098 21.1679 10.6407 20.5 12 20.5V20ZM12 13V12.5C10.6805 12.5 9.29422 12.7272 8.20554 13.0312L8.34002 13.5128L8.4745 13.9944C9.48796 13.7114 10.7833 13.5 12 13.5V13ZM8.34002 13.5128L8.20554 13.0312C7.66037 13.1835 7.21298 13.5882 6.92106 14.0416C6.62869 14.4957 6.44744 15.0675 6.51354 15.6191L7.00999 15.5596L7.50644 15.5001C7.4745 15.2336 7.56255 14.8925 7.76185 14.583C7.96159 14.2727 8.22824 14.0631 8.4745 13.9944L8.34002 13.5128ZM7.00999 15.5596L6.51354 15.6191C6.54925 15.917 6.70371 16.1531 6.92157 16.3043C7.12744 16.4471 7.36713 16.5 7.58173 16.5V16V15.5C7.55416 15.5 7.53157 15.4965 7.51509 15.4919C7.49862 15.4874 7.4918 15.4828 7.49158 15.4826C7.49157 15.4826 7.49196 15.4829 7.49267 15.4835C7.49338 15.4841 7.49436 15.485 7.49552 15.4862C7.49794 15.4887 7.50055 15.492 7.50287 15.4958C7.50832 15.5048 7.50744 15.5085 7.50644 15.5001L7.00999 15.5596ZM7.58173 16V16.5H16.4183V16V15.5H7.58173V16ZM16.4183 16V16.5C16.6329 16.5 16.8726 16.4471 17.0784 16.3043C17.2963 16.1531 17.4508 15.917 17.4865 15.6191L16.99 15.5596L16.4935 15.5001C16.4925 15.5085 16.4917 15.5048 16.4971 15.4959C16.4995 15.492 16.5021 15.4888 16.5045 15.4862C16.5056 15.485 16.5066 15.4841 16.5073 15.4835C16.508 15.4829 16.5084 15.4826 16.5084 15.4826C16.5082 15.4828 16.5014 15.4874 16.4849 15.4919C16.4685 15.4965 16.4459 15.5 16.4183 15.5V16ZM16.99 15.5596L17.4864 15.6191C17.5526 15.0675 17.3713 14.4957 17.079 14.0416C16.787 13.5882 16.3396 13.1835 15.7945 13.0312L15.66 13.5128L15.5255 13.9944C15.7718 14.0631 16.0384 14.2727 16.2382 14.583C16.4375 14.8925 16.5255 15.2336 16.4936 15.5001L16.99 15.5596ZM15.66 13.5128L15.7945 13.0312C14.7058 12.7272 13.3195 12.5 12 12.5V13V13.5C13.2167 13.5 14.512 13.7114 15.5255 13.9944L15.66 13.5128ZM21 10V9.5C19.6193 9.5 18.5 10.6193 18.5 12H19H19.5C19.5 11.1715 20.1715 10.5 21 10.5V10ZM19 12H18.5V13H19H19.5V12H19ZM19 13H18.5C18.5 13.8285 17.8285 14.5 17 14.5V15V15.5C18.3807 15.5 19.5 14.3807 19.5 13H19ZM3 10V10.5C3.82843 10.5 4.5 11.1715 4.5 12H5H5.5C5.5 10.6193 4.38071 9.5 3 9.5V10ZM5 12H4.5V13H5H5.5V12H5ZM5 13H4.5C4.5 14.3807 5.61929 15.5 7 15.5V15V14.5C6.17157 14.5 5.5 13.8285 5.5 13H5ZM12 16H11.5V22H12H12.5V16H12ZM12.8197 10V9.5H11.1803V10V10.5H12.8197V10ZM11.1803 10V9.5C10.4662 9.5 9.97782 9.49905 9.60289 9.45109C9.2438 9.40516 9.04507 9.32184 8.8904 9.19266L8.56988 9.57641L8.24936 9.96016C8.60185 10.2546 9.00723 10.383 9.47601 10.443C9.92896 10.5009 10.4922 10.5 11.1803 10.5V10ZM8.56988 9.57641L8.8904 9.19266C8.73249 9.06077 8.60267 8.86598 8.46961 8.49235C8.33287 8.10841 8.21216 7.5952 8.03949 6.85635L7.55261 6.97014L7.06573 7.08393C7.23313 7.8002 7.36747 8.37833 7.52757 8.82785C7.69133 9.28768 7.90011 9.66846 8.24936 9.96016L8.56988 9.57641ZM7.55261 6.97014L8.03949 6.85635C7.7688 5.6981 7.57855 4.87924 7.51902 4.25285C7.46043 3.63631 7.54004 3.30484 7.71585 3.06396L7.31199 2.76918L6.90813 2.4744C6.52253 3.00269 6.45511 3.62777 6.5235 4.34746C6.59096 5.05728 6.80173 5.95432 7.06573 7.08393L7.55261 6.97014ZM7.31199 2.76918L7.71585 3.06396C7.88615 2.83063 8.15046 2.6763 8.70641 2.59027C9.28055 2.50142 10.0612 2.5 11.1803 2.5V2V1.5C10.0948 1.5 9.22199 1.49858 8.55349 1.60203C7.86679 1.70829 7.29924 1.93855 6.90813 2.4744L7.31199 2.76918ZM11.1803 2V2.5H12.8197V2V1.5H11.1803V2ZM12.8197 2V2.5C13.9388 2.5 14.7194 2.50142 15.2936 2.59027C15.8495 2.6763 16.1138 2.83064 16.2841 3.06395L16.688 2.76918L17.0919 2.47441C16.7008 1.93854 16.1332 1.70829 15.4465 1.60203C14.778 1.49858 13.9052 1.5 12.8197 1.5V2ZM16.688 2.76918L16.2841 3.06395C16.46 3.30484 16.5396 3.63632 16.481 4.25285C16.4215 4.87924 16.2312 5.6981 15.9605 6.85635L16.4474 6.97014L16.9343 7.08393C17.1983 5.95432 17.409 5.05728 17.4765 4.34745C17.5449 3.62776 17.4774 3.00269 17.0919 2.47441L16.688 2.76918ZM16.4474 6.97014L15.9605 6.85634C15.7878 7.5952 15.6671 8.10841 15.5304 8.49235C15.3973 8.86598 15.2675 9.06076 15.1096 9.19264L15.4301 9.57641L15.7506 9.96018C16.0999 9.66847 16.3087 9.28768 16.4724 8.82785C16.6325 8.37833 16.7669 7.8002 16.9343 7.08394L16.4474 6.97014ZM15.4301 9.57641L15.1096 9.19267C14.9549 9.32184 14.7562 9.40516 14.3971 9.45109C14.0222 9.49905 13.5338 9.5 12.8197 9.5V10V10.5C13.5078 10.5 14.0711 10.5009 14.524 10.443C14.9928 10.383 15.3982 10.2546 15.7506 9.96015L15.4301 9.57641ZM12 10H11.5V13H12H12.5V10H12Z" fill="white"/>
</svg>
